<mxfile host="app.diagrams.net" agent="Mozilla/5.0 (Windows NT 10.0; Win64; x64) AppleWebKit/537.36 (KHTML, like Gecko) Chrome/129.0.0.0 Safari/537.36" version="24.7.17">
  <diagram name="Page-1" id="Oj2CwVeMSre-gb_g6IW_">
    <mxGraphModel dx="1744" dy="891" grid="1" gridSize="10" guides="1" tooltips="1" connect="1" arrows="1" fold="1" page="1" pageScale="1" pageWidth="850" pageHeight="1100" math="0" shadow="0">
      <root>
        <mxCell id="0" />
        <mxCell id="1" parent="0" />
        <mxCell id="HESK5Comx3yYh3DtOV38-17" value="" style="rounded=0;whiteSpace=wrap;html=1;dashed=1;align=left;verticalAlign=bottom;" vertex="1" parent="1">
          <mxGeometry x="570" y="80" width="520" height="310" as="geometry" />
        </mxCell>
        <mxCell id="HESK5Comx3yYh3DtOV38-44" value="Azure Synapse Analytics" style="rounded=0;whiteSpace=wrap;html=1;dashed=1;align=left;verticalAlign=bottom;" vertex="1" parent="1">
          <mxGeometry x="600" y="210" width="380" height="160" as="geometry" />
        </mxCell>
        <mxCell id="HESK5Comx3yYh3DtOV38-16" value="" style="rounded=0;whiteSpace=wrap;html=1;dashed=1;" vertex="1" parent="1">
          <mxGeometry x="20" y="80" width="540" height="310" as="geometry" />
        </mxCell>
        <mxCell id="HESK5Comx3yYh3DtOV38-4" style="edgeStyle=orthogonalEdgeStyle;rounded=0;orthogonalLoop=1;jettySize=auto;html=1;" edge="1" parent="1" source="HESK5Comx3yYh3DtOV38-1" target="HESK5Comx3yYh3DtOV38-3">
          <mxGeometry relative="1" as="geometry" />
        </mxCell>
        <mxCell id="HESK5Comx3yYh3DtOV38-1" value="Elevator" style="html=1;whiteSpace=wrap;" vertex="1" parent="1">
          <mxGeometry x="40" y="130" width="50" height="80" as="geometry" />
        </mxCell>
        <mxCell id="HESK5Comx3yYh3DtOV38-5" style="edgeStyle=orthogonalEdgeStyle;rounded=0;orthogonalLoop=1;jettySize=auto;html=1;entryX=0;entryY=0.5;entryDx=0;entryDy=0;" edge="1" parent="1" source="HESK5Comx3yYh3DtOV38-2" target="HESK5Comx3yYh3DtOV38-3">
          <mxGeometry relative="1" as="geometry" />
        </mxCell>
        <mxCell id="HESK5Comx3yYh3DtOV38-2" value="Elevator" style="html=1;whiteSpace=wrap;" vertex="1" parent="1">
          <mxGeometry x="40" y="240" width="50" height="80" as="geometry" />
        </mxCell>
        <mxCell id="HESK5Comx3yYh3DtOV38-3" value="Controller" style="html=1;whiteSpace=wrap;" vertex="1" parent="1">
          <mxGeometry x="180" y="160" width="110" height="50" as="geometry" />
        </mxCell>
        <mxCell id="HESK5Comx3yYh3DtOV38-10" style="edgeStyle=orthogonalEdgeStyle;rounded=0;orthogonalLoop=1;jettySize=auto;html=1;" edge="1" parent="1" source="HESK5Comx3yYh3DtOV38-3" target="HESK5Comx3yYh3DtOV38-23">
          <mxGeometry relative="1" as="geometry">
            <mxPoint x="375" y="165" as="targetPoint" />
          </mxGeometry>
        </mxCell>
        <mxCell id="HESK5Comx3yYh3DtOV38-18" value="" style="html=1;outlineConnect=0;fillColor=#CCCCCC;strokeColor=#6881B3;gradientColor=none;gradientDirection=north;strokeWidth=2;shape=mxgraph.networks.cloud;fontColor=#ffffff;" vertex="1" parent="1">
          <mxGeometry x="580" y="95" width="30" height="20" as="geometry" />
        </mxCell>
        <mxCell id="HESK5Comx3yYh3DtOV38-23" value="" style="fontColor=#0066CC;verticalAlign=top;verticalLabelPosition=bottom;labelPosition=center;align=center;html=1;outlineConnect=0;fillColor=#CCCCCC;strokeColor=#6881B3;gradientColor=none;gradientDirection=north;strokeWidth=2;shape=mxgraph.networks.server;" vertex="1" parent="1">
          <mxGeometry x="400" y="155" width="50" height="60" as="geometry" />
        </mxCell>
        <mxCell id="HESK5Comx3yYh3DtOV38-26" style="edgeStyle=orthogonalEdgeStyle;rounded=0;orthogonalLoop=1;jettySize=auto;html=1;" edge="1" parent="1" source="HESK5Comx3yYh3DtOV38-25" target="HESK5Comx3yYh3DtOV38-23">
          <mxGeometry relative="1" as="geometry" />
        </mxCell>
        <mxCell id="HESK5Comx3yYh3DtOV38-37" style="edgeStyle=orthogonalEdgeStyle;rounded=0;orthogonalLoop=1;jettySize=auto;html=1;" edge="1" parent="1" source="HESK5Comx3yYh3DtOV38-25" target="HESK5Comx3yYh3DtOV38-35">
          <mxGeometry relative="1" as="geometry" />
        </mxCell>
        <mxCell id="HESK5Comx3yYh3DtOV38-25" value="Staging Database" style="verticalLabelPosition=bottom;html=1;verticalAlign=top;align=center;strokeColor=none;fillColor=#00BEF2;shape=mxgraph.azure.mysql_database;" vertex="1" parent="1">
          <mxGeometry x="406.25" y="257.5" width="37.5" height="50" as="geometry" />
        </mxCell>
        <mxCell id="HESK5Comx3yYh3DtOV38-27" value="&lt;span style=&quot;color: rgb(0, 0, 0); font-family: Helvetica; font-size: 12px; font-style: normal; font-variant-ligatures: normal; font-variant-caps: normal; font-weight: 400; letter-spacing: normal; orphans: 2; text-align: center; text-indent: 0px; text-transform: none; widows: 2; word-spacing: 0px; -webkit-text-stroke-width: 0px; white-space: nowrap; background-color: rgb(251, 251, 251); text-decoration-thickness: initial; text-decoration-style: initial; text-decoration-color: initial; display: inline !important; float: none;&quot;&gt;Control Room Application&lt;/span&gt;" style="text;whiteSpace=wrap;html=1;" vertex="1" parent="1">
          <mxGeometry x="355" y="122.5" width="140" height="30" as="geometry" />
        </mxCell>
        <mxCell id="HESK5Comx3yYh3DtOV38-36" value="&lt;div&gt;Ingestion&lt;/div&gt;" style="rounded=0;whiteSpace=wrap;html=1;dashed=1;fillColor=none;verticalAlign=top;" vertex="1" parent="1">
          <mxGeometry x="620" y="50" width="100" height="360" as="geometry" />
        </mxCell>
        <mxCell id="HESK5Comx3yYh3DtOV38-40" style="edgeStyle=orthogonalEdgeStyle;rounded=0;orthogonalLoop=1;jettySize=auto;html=1;" edge="1" parent="1" source="HESK5Comx3yYh3DtOV38-35" target="HESK5Comx3yYh3DtOV38-39">
          <mxGeometry relative="1" as="geometry" />
        </mxCell>
        <mxCell id="HESK5Comx3yYh3DtOV38-35" value="Synapse Pipeline" style="image;aspect=fixed;html=1;points=[];align=center;fontSize=12;image=img/lib/azure2/databases/Azure_Synapse_Analytics.svg;" vertex="1" parent="1">
          <mxGeometry x="640" y="248" width="60" height="69" as="geometry" />
        </mxCell>
        <mxCell id="HESK5Comx3yYh3DtOV38-38" value="&lt;div&gt;Storage&lt;/div&gt;" style="rounded=0;whiteSpace=wrap;html=1;dashed=1;fillColor=none;verticalAlign=top;" vertex="1" parent="1">
          <mxGeometry x="730" y="50" width="110" height="360" as="geometry" />
        </mxCell>
        <mxCell id="HESK5Comx3yYh3DtOV38-39" value="" style="image;aspect=fixed;html=1;points=[];align=center;fontSize=12;image=img/lib/azure2/analytics/Data_Lake_Store_Gen1.svg;" vertex="1" parent="1">
          <mxGeometry x="753" y="256.5" width="64" height="52" as="geometry" />
        </mxCell>
        <mxCell id="HESK5Comx3yYh3DtOV38-41" value="&lt;div&gt;Process&lt;/div&gt;" style="rounded=0;whiteSpace=wrap;html=1;dashed=1;fillColor=none;verticalAlign=top;" vertex="1" parent="1">
          <mxGeometry x="850" y="50" width="110" height="360" as="geometry" />
        </mxCell>
        <mxCell id="HESK5Comx3yYh3DtOV38-42" value="Dedicated SQL&amp;nbsp;&lt;div&gt;Pools&lt;/div&gt;" style="image;aspect=fixed;html=1;points=[];align=center;fontSize=12;image=img/lib/azure2/databases/Azure_Synapse_Analytics.svg;" vertex="1" parent="1">
          <mxGeometry x="875" y="244" width="60" height="69" as="geometry" />
        </mxCell>
        <mxCell id="HESK5Comx3yYh3DtOV38-43" style="edgeStyle=orthogonalEdgeStyle;rounded=0;orthogonalLoop=1;jettySize=auto;html=1;entryX=0;entryY=0.553;entryDx=0;entryDy=0;entryPerimeter=0;" edge="1" parent="1" source="HESK5Comx3yYh3DtOV38-39" target="HESK5Comx3yYh3DtOV38-42">
          <mxGeometry relative="1" as="geometry" />
        </mxCell>
        <mxCell id="HESK5Comx3yYh3DtOV38-45" value="&lt;div&gt;Serve&lt;/div&gt;" style="rounded=0;whiteSpace=wrap;html=1;dashed=1;fillColor=none;verticalAlign=top;" vertex="1" parent="1">
          <mxGeometry x="970" y="50" width="110" height="360" as="geometry" />
        </mxCell>
        <mxCell id="HESK5Comx3yYh3DtOV38-50" style="edgeStyle=orthogonalEdgeStyle;rounded=0;orthogonalLoop=1;jettySize=auto;html=1;" edge="1" parent="1" source="HESK5Comx3yYh3DtOV38-47" target="HESK5Comx3yYh3DtOV38-49">
          <mxGeometry relative="1" as="geometry" />
        </mxCell>
        <mxCell id="HESK5Comx3yYh3DtOV38-47" value="" style="image;sketch=0;aspect=fixed;html=1;points=[];align=center;fontSize=12;image=img/lib/mscae/Stream_Analytics.svg;" vertex="1" parent="1">
          <mxGeometry x="874" y="113.5" width="50" height="39" as="geometry" />
        </mxCell>
        <mxCell id="HESK5Comx3yYh3DtOV38-48" style="edgeStyle=orthogonalEdgeStyle;rounded=0;orthogonalLoop=1;jettySize=auto;html=1;entryX=0.627;entryY=0.923;entryDx=0;entryDy=0;entryPerimeter=0;" edge="1" parent="1" source="HESK5Comx3yYh3DtOV38-42" target="HESK5Comx3yYh3DtOV38-47">
          <mxGeometry relative="1" as="geometry" />
        </mxCell>
        <mxCell id="HESK5Comx3yYh3DtOV38-49" value="Power BI&amp;nbsp;&lt;div&gt;Dashboard&lt;/div&gt;" style="image;aspect=fixed;html=1;points=[];align=center;fontSize=12;image=img/lib/azure2/analytics/Power_BI_Embedded.svg;" vertex="1" parent="1">
          <mxGeometry x="1000" y="240" width="51" height="68" as="geometry" />
        </mxCell>
        <mxCell id="HESK5Comx3yYh3DtOV38-51" value="The main usecase of building out advanced analytics is to understand elevator patterns so that&lt;div style=&quot;font-size: 15px;&quot;&gt;&amp;nbsp;we can predict things such as:&lt;/div&gt;&lt;div style=&quot;font-size: 15px;&quot;&gt;&lt;br style=&quot;font-size: 15px;&quot;&gt;&lt;div style=&quot;font-size: 15px;&quot;&gt;1. When the elevators are most active&lt;/div&gt;&lt;div style=&quot;font-size: 15px;&quot;&gt;2. Which floors are receiving the most traffic&lt;/div&gt;&lt;div style=&quot;font-size: 15px;&quot;&gt;&lt;br style=&quot;font-size: 15px;&quot;&gt;&lt;/div&gt;&lt;div style=&quot;font-size: 15px;&quot;&gt;We can then use this data to educate things such as, when we can turn off certain elevators or to&amp;nbsp;&lt;/div&gt;&lt;div style=&quot;font-size: 15px;&quot;&gt;help assist in determining when would be the best opportunity to clean certain floors&lt;/div&gt;&lt;div style=&quot;font-size: 15px;&quot;&gt;&lt;br style=&quot;font-size: 15px;&quot;&gt;&lt;/div&gt;&lt;/div&gt;" style="text;html=1;align=center;verticalAlign=middle;resizable=0;points=[];autosize=1;strokeColor=none;fillColor=none;fontSize=15;fontStyle=1" vertex="1" parent="1">
          <mxGeometry x="20" y="420" width="670" height="180" as="geometry" />
        </mxCell>
        <mxCell id="HESK5Comx3yYh3DtOV38-52" value="The idea here is that edge computers are attached to each elevator&lt;div&gt;which then transfer data to the controller. The controller then transfers data to a SQL server&amp;nbsp;&lt;/div&gt;&lt;div&gt;where the data can be stored. This same server in a real world scenario is probably running some&lt;/div&gt;&lt;div&gt;kind of building management software or streaming data to a cloud app.&lt;/div&gt;" style="text;html=1;align=center;verticalAlign=middle;resizable=0;points=[];autosize=1;strokeColor=none;fillColor=none;fontStyle=1" vertex="1" parent="1">
          <mxGeometry x="20" width="540" height="70" as="geometry" />
        </mxCell>
      </root>
    </mxGraphModel>
  </diagram>
</mxfile>
